{"title":"Koktebel aka Roads to Koktebel (2003) -  Boris Khlebnikov &amp;","uid":7041140,"size":1467089654,"categoryP":"video","categoryS":"movies","magnet":"?xt=urn:btih:d9e5200669d618eaf13fbf890200c7f960e88c15&amp;dn=Koktebel+aka+Roads+to+Koktebel+%282003%29+-++Boris+Khlebnikov+%26amp%3B+&amp;tr=udp%3A%2F%2Ftracker.openbittorrent.com%3A80&amp;tr=udp%3A%2F%2Fopen.demonii.com%3A1337&amp;tr=udp%3A%2F%2Ftracker.coppersurfer.tk%3A6969&amp;tr=udp%3A%2F%2Fexodus.desync.com%3A6969","seeders":3,"leechers":1,"uploader":"Aaaameida","files":8,"time":1329545971,"description":"A widowed aeronautics engineer, who has lost his job, travels with his son hopping freight trains from Moscow to Koktebel, a town by the Black Sea, to start a new life with the father's sister. After they are stopped by a train guard, they continue their travel on foot. The father battles against his alcohol addiction and the son is fascinated with the idea of flight. One rainy day an old man accepts them in his house in return for the repair of the roof. The father gives in to the alcohol offered by the old man, who in a drunken brawl accuses him of stealing money and shoots him. A young female village doctor takes care of him and a romantic relationship between the two ensues. The father feels reluctant to continue the journey. The son leaves alone and a truck driver gives him a ride to Koktebel. However, his aunt has left for the summer.\n\n\t\nScreenshots: \n &lt;a href=&quot;\nhttp://img832.imageshack.us/img832/1831/bscap0009fw.jpg&quot; rel=&quot;nofollow&quot; target=&quot;_NEW&quot;&gt;\nhttp://img832.imageshack.us/img832/1831/bscap0009fw.jpg&lt;/a&gt;  &lt;a href=&quot;\nhttp://img443.imageshack.us/img443/5208/bscap0010kuam.jpg&quot; rel=&quot;nofollow&quot; target=&quot;_NEW&quot;&gt;\nhttp://img443.imageshack.us/img443/5208/bscap0010kuam.jpg&lt;/a&gt;  &lt;a href=&quot;\nhttp://img443.imageshack.us/img443/363/bscap0013plri.jpg&quot; rel=&quot;nofollow&quot; target=&quot;_NEW&quot;&gt;\nhttp://img443.imageshack.us/img443/363/bscap0013plri.jpg&lt;/a&gt;  &lt;a href=&quot;\nhttp://img651.imageshack.us/img651/5346/bscap0021xn.jpg&quot; rel=&quot;nofollow&quot; target=&quot;_NEW&quot;&gt;\nhttp://img651.imageshack.us/img651/5346/bscap0021xn.jpg&lt;/a&gt;\n\n\nwww.imdb.com/title/tt0372366/\n\n\nFormat : AVI \nFormat/Info : Audio Video Interleave \nFile size : 1.37 GB \nDuration : 100mn 15s \nOverall bit rate : 1 947 Kbps \nWriting application : VirtualDubMod 1.5.4.1 (build 2178/release) \nWriting library : VirtualDubMod build 2178/release \nVideo #0 \nID : 0 \nFormat : MPEG-4 Visual \nFormat settings, BVOP : Yes \nFormat settings, QPel : No \nFormat settings, GMC : No warppoints \nFormat settings, Matrix : Default (H.263) \nMuxing mode : Packed bitstream \nCodec ID : DX50 \nCodec ID/Hint : DivX 5 \nDuration : 100mn 15s \nBit rate : 1 492 Kbps \nWidth : 640 pixels \nHeight : 368 pixels \nDisplay aspect ratio : 16:9 \nFrame rate : 25.000 fps \nResolution : 24 bits \nScan type : Progressive \nBits/(Pixel*Frame) : 0.253 \nStream size : 536 MiB (77%) \nWriting library : DivX 5.1.1 Beta2 (UTC 2003-11) \nAudio #1 \nID : 1 \nFormat : AC-3 \nFormat/Info : Audio Coding 3 \nCodec ID : 2000 \nDuration : 50mn 15s \nBit rate mode : Constant \nBit rate : 448 Kbps \nChannel(s) : 6 channels \nChannel positions : Front: L C R, Surround: L R, LFE \nSampling rate : 48.0 KHz \nVideo delay : 8ms \nStream size : 161 MiB (23%) \nAlignment : Split accross interleaves \nInterleave, duration : 64 ms (1.60 video frames) \nInterleave, preload duration : 64 ms\n\n\n","torrent":{"xt":"urn:btih:d9e5200669d618eaf13fbf890200c7f960e88c15","amp;dn":"Koktebel+aka+Roads+to+Koktebel+%282003%29+-++Boris+Khlebnikov+%26amp%3B+","amp;tr":["udp%3A%2F%2Ftracker.openbittorrent.com%3A80","udp%3A%2F%2Fopen.demonii.com%3A1337","udp%3A%2F%2Ftracker.coppersurfer.tk%3A6969","udp%3A%2F%2Fexodus.desync.com%3A6969"],"infoHash":"d9e5200669d618eaf13fbf890200c7f960e88c15","infoHashBuffer":{"type":"Buffer","data":[217,229,32,6,105,214,24,234,241,63,191,137,2,0,199,249,96,232,140,21]},"announce":[],"urlList":[]}}